<svg width="26" height="20" viewBox="0 0 26 20" fill="none" xmlns="http://www.w3.org/2000/svg">
<path opacity="0.5" d="M2.36364 0.260742C1.73676 0.260742 1.13556 0.510965 0.692293 0.956363C0.249025 1.40176 0 2.00585 0 2.63574V15.6982H2.36364C2.36364 16.6431 2.73717 17.5492 3.40208 18.2173C4.06698 18.8854 4.96878 19.2607 5.90909 19.2607C6.8494 19.2607 7.7512 18.8854 8.41611 18.2173C9.08101 17.5492 9.45455 16.6431 9.45455 15.6982H16.5455C16.5455 16.6431 16.919 17.5492 17.5839 18.2173C18.2488 18.8854 19.1506 19.2607 20.0909 19.2607C21.0312 19.2607 21.933 18.8854 22.5979 18.2173C23.2628 17.5492 23.6364 16.6431 23.6364 15.6982H26V9.76074L22.4545 5.01074H18.9091V0.260742H2.36364ZM10.6364 2.63574L15.3636 7.38574L10.6364 12.1357V8.57324H3.54545V6.19824H10.6364V2.63574ZM18.9091 6.79199H21.8636L24.1918 9.76074H18.9091V6.79199ZM5.90909 13.917C6.37925 13.917 6.83015 14.1047 7.1626 14.4387C7.49505 14.7728 7.68182 15.2258 7.68182 15.6982C7.68182 16.1707 7.49505 16.6237 7.1626 16.9578C6.83015 17.2918 6.37925 17.4795 5.90909 17.4795C5.43893 17.4795 4.98803 17.2918 4.65558 16.9578C4.32313 16.6237 4.13636 16.1707 4.13636 15.6982C4.13636 15.2258 4.32313 14.7728 4.65558 14.4387C4.98803 14.1047 5.43893 13.917 5.90909 13.917ZM20.0909 13.917C20.5611 13.917 21.012 14.1047 21.3444 14.4387C21.6769 14.7728 21.8636 15.2258 21.8636 15.6982C21.8636 16.1707 21.6769 16.6237 21.3444 16.9578C21.012 17.2918 20.5611 17.4795 20.0909 17.4795C19.6208 17.4795 19.1699 17.2918 18.8374 16.9578C18.505 16.6237 18.3182 16.1707 18.3182 15.6982C18.3182 15.2258 18.505 14.7728 18.8374 14.4387C19.1699 14.1047 19.6208 13.917 20.0909 13.917Z" fill="#1640A9"/>
</svg>
