<svg width="63" height="43" viewBox="0 0 63 43" fill="none" xmlns="http://www.w3.org/2000/svg">
<path d="M32.6445 3.2889C32.6445 2.16392 33.572 1.26026 34.6966 1.28958L50.6607 1.70571C51.6507 1.73152 52.4727 2.478 52.5936 3.46095L54.2278 16.7515C54.3348 17.622 53.8623 18.4606 53.0622 18.82L35.464 26.7251C34.1407 27.3196 32.6445 26.3514 32.6445 24.9007V3.2889Z" fill="#FEB63D"/>
<path d="M60.8614 19.4949L56.5714 17.7117L52.9285 10.9033C51.9439 9.03913 49.9466 7.87738 47.7665 7.89089H41.4933V6.18879C41.4933 3.10881 38.9334 0.596191 35.7265 0.596191H5.73906C2.53215 0.596191 0.000374251 3.12232 0.000374251 6.18879V32.2606C-0.0277566 34.1383 1.5335 35.6783 3.48859 35.7053C3.50266 35.7053 3.51672 35.7053 3.54486 35.7053H4.29032C4.29032 35.8404 4.27626 35.8944 4.27626 35.9755C4.26219 39.839 7.5113 42.9865 11.534 43C15.5567 43.0135 18.834 39.893 18.848 36.0295C18.848 36.0025 18.848 35.989 18.848 35.962C18.848 35.8674 18.848 35.8269 18.8339 35.6918H43.0686C43.0686 35.8269 43.0686 35.8809 43.0686 35.962C43.0546 39.8255 46.3037 42.973 50.3264 42.9865C54.3491 43 57.6263 39.8795 57.6404 36.016C57.6404 35.989 57.6404 35.9755 57.6404 35.9485C57.6404 35.8539 57.6404 35.8134 57.6404 35.6783H59.4548C61.4099 35.6783 62.9993 34.1518 62.9993 32.2741C62.9993 32.2606 62.9993 32.2471 62.9993 32.2201V22.6289C63.0274 21.305 62.1835 20.0487 60.8614 19.4949ZM11.5762 40.3118C9.10069 40.3118 7.1034 38.3935 7.1034 36.016C7.1034 33.6385 9.10069 31.7202 11.5762 31.7202C14.0517 31.7202 16.049 33.6385 16.049 36.016C16.049 38.38 14.0376 40.3118 11.5762 40.3118ZM38.6802 33.0306H18.1729C16.9914 30.5585 14.4033 28.978 11.5762 28.9915C8.73499 28.978 6.16102 30.545 4.97953 33.0306H3.54486C3.10883 33.0306 2.81345 32.7064 2.81345 32.2876V25.3306H38.6802V33.0306ZM38.6802 6.2023V22.6289H2.81345V6.2023C2.81345 4.62178 4.09341 3.31144 5.73906 3.31144H35.7265C37.3722 3.32495 38.6943 4.62178 38.6802 6.18879V6.2023ZM41.4933 10.6061H47.7665C48.8776 10.5926 49.9185 11.1735 50.4389 12.1326L53.252 17.3605H41.4933V10.6061ZM50.3686 40.3118C47.8931 40.3118 45.8958 38.3935 45.8958 36.016C45.8958 33.6385 47.8931 31.7202 50.3686 31.7202C52.8441 31.7202 54.8414 33.6385 54.8414 36.016C54.8414 38.38 52.8441 40.3118 50.3686 40.3118ZM60.2003 32.2876C60.2003 32.7064 59.9049 33.0306 59.4689 33.0306H56.9653C55.2633 29.5318 50.9312 28.0189 47.2883 29.6534C45.7411 30.3423 44.4892 31.5446 43.7719 33.0306H41.4933V20.0622H55.2774L59.7502 21.9534C60.0315 22.0885 60.2144 22.3857 60.2003 22.6829V32.2876Z" fill="#262626"/>
</svg>
