<svg width="55" height="64" viewBox="0 0 55 64" fill="none" xmlns="http://www.w3.org/2000/svg">
<path d="M16.5771 35.4093L30.8056 7.94014C31.4767 6.60872 33.0875 6.1182 34.3627 6.81894L53.0207 17.3301C54.2959 18.0309 54.7657 19.7126 54.0946 21.0441L46.6448 35.4093H16.5771Z" fill="#FEB63D"/>
<path d="M51.1418 10.9534L41.0745 5.27739L34.363 1.49335L32.4838 0.442229C30.6717 -0.538818 28.3226 0.16193 27.3159 2.05395L16.309 23.2866H3.02019C1.34231 23.2866 0 24.6881 0 26.44V32.046V60.8467C0 62.5986 1.34231 64.0001 3.02019 64.0001H45.5041C47.182 64.0001 48.5243 62.5986 48.5243 60.8467V52.7881H49.7995C50.4707 52.7881 51.0076 52.2275 51.0076 51.5267V42.3469C51.0076 41.6462 50.4707 41.0856 49.7995 41.0856H48.5243V32.046C48.5243 30.5744 47.5176 29.313 46.1753 28.9627L52.6855 16.3492C53.6922 14.4572 53.021 12.0046 51.1418 10.9534ZM29.4636 3.24522C29.7992 2.54447 30.7388 2.26417 31.4099 2.61455L33.2892 3.66567L20.2017 28.8926H16.1748L29.4636 3.24522ZM37.853 6.25843L26.1749 28.8926H22.8863L35.3697 4.85694L37.853 6.25843ZM3.02019 25.7392H15.1009L13.4902 28.8225H3.02019C2.81884 28.8225 2.55038 28.8225 2.34903 28.8926V26.3699C2.34903 26.0896 2.61749 25.7392 3.02019 25.7392ZM48.5914 43.5382V50.2654H48.5243H41.5443C40.8732 50.2654 40.3363 49.7048 40.3363 49.0041V44.7295C40.3363 44.0287 40.8732 43.4681 41.5443 43.4681H48.5243H48.5914V43.5382ZM41.5443 41.0856C39.598 41.0856 37.9872 42.7674 37.9872 44.7996V49.0741C37.9872 51.1063 39.598 52.7881 41.5443 52.7881H46.1753V60.8467C46.1753 61.1971 45.9068 61.5474 45.5041 61.5474H3.02019C2.68461 61.5474 2.34903 61.2671 2.34903 60.8467V32.046C2.34903 31.6956 2.61749 31.3452 3.02019 31.3452H14.1613H18.9265H27.5844H44.2289H45.5041C45.8397 31.3452 46.1753 31.6255 46.1753 32.046V41.0856H41.5443ZM50.6049 15.1579L43.4907 28.8926H28.8596L39.9336 7.44971L50.0009 13.1258C50.7391 13.5462 51.0076 14.4572 50.6049 15.1579Z" fill="#262626"/>
<path d="M46.041 13.9687L45.437 13.6183C43.9604 12.7774 41.947 13.4081 41.1416 14.9498L40.4033 16.4213C40.0006 17.1922 39.9335 18.1031 40.1348 18.9441C40.4033 19.785 40.9402 20.4857 41.6785 20.9062L42.2825 21.2565C42.7523 21.5368 43.2893 21.677 43.7591 21.677C44.9 21.677 45.9739 21.0463 46.5779 19.9251L47.3162 18.4535C47.7189 17.6827 47.786 16.7717 47.5846 15.9308C47.3162 15.0899 46.7793 14.3891 46.041 13.9687ZM45.2356 17.2622L44.4973 18.7338C44.296 19.1543 43.8262 19.2944 43.4235 19.0842L42.8195 18.7338C42.6181 18.6638 42.4839 18.4535 42.4168 18.2433C42.3497 18.0331 42.3497 17.8228 42.4839 17.6126L43.2222 16.141C43.3564 15.8607 43.6248 15.7206 43.8933 15.7206C44.0275 15.7206 44.1618 15.7206 44.296 15.7907L44.9 16.141C45.1014 16.2111 45.2356 16.4213 45.3027 16.6316C45.3698 16.8418 45.3698 17.052 45.2356 17.2622Z" fill="#262626"/>
</svg>
